<?xml version="1.0" encoding="UTF-8" standalone="no"?>
<!-- Created with Inkscape (http://www.inkscape.org/) -->

<svg
   width="434.43079"
   height="177.20694"
   viewBox="0 0 114.94314 46.886003"
   version="1.1"
   id="svg1"
   inkscape:export-filename="../../bitmap.png"
   inkscape:export-xdpi="300"
   inkscape:export-ydpi="300"
   inkscape:version="1.4.2 (ebf0e940d0, 2025-05-08)"
   sodipodi:docname="logo.svg"
   xml:space="preserve"
   xmlns:inkscape="http://www.inkscape.org/namespaces/inkscape"
   xmlns:sodipodi="http://sodipodi.sourceforge.net/DTD/sodipodi-0.dtd"
   xmlns:xlink="http://www.w3.org/1999/xlink"
   xmlns="http://www.w3.org/2000/svg"
   xmlns:svg="http://www.w3.org/2000/svg"><sodipodi:namedview
     id="namedview1"
     pagecolor="#ffffff"
     bordercolor="#000000"
     borderopacity="0.25"
     inkscape:showpageshadow="2"
     inkscape:pageopacity="0.0"
     inkscape:pagecheckerboard="0"
     inkscape:deskcolor="#d1d1d1"
     inkscape:document-units="mm"
     inkscape:zoom="2.0259172"
     inkscape:cx="331.94841"
     inkscape:cy="166.34441"
     inkscape:window-width="2256"
     inkscape:window-height="1466"
     inkscape:window-x="0"
     inkscape:window-y="0"
     inkscape:window-maximized="0"
     inkscape:current-layer="layer1"
     showgrid="false" /><defs
     id="defs1"><linearGradient
       id="linearGradient2"
       inkscape:collect="always"><stop
         style="stop-color:#000000;stop-opacity:1;"
         offset="0"
         id="stop2" /><stop
         style="stop-color:#000000;stop-opacity:0;"
         offset="1"
         id="stop3" /></linearGradient><linearGradient
       inkscape:collect="always"
       xlink:href="#linearGradient2"
       id="linearGradient3"
       x1="63.53001"
       y1="107.10093"
       x2="138.92969"
       y2="107.10093"
       gradientUnits="userSpaceOnUse" /></defs><g
     inkscape:label="Layer 1"
     inkscape:groupmode="layer"
     id="layer1"
     transform="translate(-19.153957,-61.257954)"><rect
       style="fill:#ec8e8e;fill-opacity:1;stroke-width:2.41882;stroke-linejoin:bevel"
       id="rect1"
       width="85.232315"
       height="81.6054"
       x="-179.53189"
       y="30.828709" /><text
       xml:space="preserve"
       style="font-size:26.2122px;line-height:1.12;font-family:'Atkinson Hyperlegible';-inkscape-font-specification:'Atkinson Hyperlegible';text-align:start;text-decoration-color:#000000;letter-spacing:0px;word-spacing:0px;writing-mode:lr-tb;direction:ltr;text-anchor:start;fill:#000000;fill-opacity:0;stroke:#1d1d1d;stroke-width:10.786;stroke-linejoin:bevel;stroke-dasharray:none;stroke-opacity:1"
       x="18.059498"
       y="96.236794"
       id="text1-2"
       transform="rotate(-5.6143137)"><tspan
         sodipodi:role="line"
         id="tspan1-9"
         style="font-style:normal;font-variant:normal;font-weight:normal;font-stretch:normal;font-size:26.2122px;font-family:'Wild Words Bold';-inkscape-font-specification:'Wild Words Bold, Normal';font-variant-ligatures:normal;font-variant-caps:normal;font-variant-numeric:normal;font-variant-east-asian:normal;fill:#000000;fill-opacity:0;stroke:#1d1d1d;stroke-width:10.786;stroke-dasharray:none;stroke-opacity:1"
         x="18.059498"
         y="96.236794">ansi</tspan></text><path
       d="m 85.39811,94.401903 c -0.123841,0.22059 -0.286242,0.439634 -0.487242,0.657114 -0.185979,0.207621 -0.399125,0.390147 -0.639481,0.547527 -0.225317,0.147561 -0.469007,0.258844 -0.731094,0.333878 -0.249641,0.07763 -0.504981,0.08917 -0.765986,0.0348 -0.459854,-0.09599 -0.800603,-0.296707 -1.022204,-0.60229 -0.221602,-0.305604 -0.288317,-0.669722 -0.200176,-1.092315 0.05704,-0.273418 0.156258,-0.53158 0.297676,-0.774454 0.15643,-0.252721 0.325091,-0.470445 0.505882,-0.653229 0.183376,-0.195202 0.363893,-0.345612 0.54156,-0.45122 0.177666,-0.10562 0.322433,-0.146759 0.434303,-0.123429 0.01507,-0.0098 0.07377,-0.04301 0.176351,-0.09939 0.105126,-0.06892 0.228954,-0.133833 0.371387,-0.194918 0.157462,-0.07092 0.28591,-0.09601 0.38534,-0.07523 0.509588,0.106292 0.892486,0.322494 1.148828,0.64815 0.27132,0.315986 0.359012,0.703918 0.263093,1.163791 -0.02088,0.09946 -0.05657,0.208691 -0.107295,0.327803 -0.05044,0.119226 -0.107743,0.236912 -0.170938,0.353441 z m 17.61035,4.178801 c 8.5e-4,0.11709 0.002,0.240284 6.1e-4,0.36976 -8.5e-4,0.12946 -0.0118,0.24397 -0.0328,0.34333 -0.0752,0.36044 -0.29905,0.62501 -0.67139,0.793776 -0.3724,0.16877 -0.7264,0.21814 -1.06196,0.14815 -0.27344,-0.0571 -0.49017,-0.19946 -0.65016,-0.427426 -0.15997,-0.2279 -0.2412,-0.49126 -0.24373,-0.7901 -0.0979,-2.329034 -0.008,-4.81338 0.27047,-7.453077 -0.19683,0.322105 -0.40386,0.661529 -0.620946,1.018316 -0.21445,0.344367 -0.43906,0.70606 -0.67376,1.085106 -0.34557,0.537515 -0.683611,1.070101 -1.014157,1.597768 -0.318118,0.530255 -0.623801,1.063118 -0.917048,1.598568 -0.169411,0.314841 -0.335997,0.584888 -0.499695,0.810152 -0.163721,0.225243 -0.3269,0.385753 -0.489539,0.481529 -0.244991,0.117501 -0.49464,0.195143 -0.748934,0.232876 -0.2543,0.03771 -0.480903,0.03561 -0.679752,-0.006 -0.248574,-0.05186 -0.476876,-0.170219 -0.684335,-0.356696 -0.20764,-0.185986 -0.369946,-0.433817 -0.486921,-0.743553 0.02392,-0.487868 0.03598,-1.043057 0.03611,-1.665568 1.58e-4,-0.622521 -0.01394,-1.332312 -0.04224,-2.129377 -0.03197,-0.655152 -0.06189,-1.257993 -0.08969,-1.808534 -0.0154,-0.547954 -0.02621,-1.056008 -0.03228,-1.5242 -0.292718,0.470713 -0.612132,1.007187 -0.958222,1.609429 -0.333652,0.604839 -0.686507,1.270514 -1.058532,1.997061 -0.06844,0.141345 -0.18417,0.447958 -0.347148,0.919834 -0.150754,0.474378 -0.356315,0.963299 -0.617158,1.466554 -0.25801,0.490917 -0.566521,0.912938 -0.925509,1.266064 -0.346571,0.355713 -0.743563,0.486925 -1.191009,0.393596 -0.06249,-0.01214 -0.141796,-0.03561 -0.238414,-0.06941 -0.0969,-0.033 -0.19268,-0.07182 -0.286607,-0.118204 -0.33301,-0.08235 -0.566803,-0.267339 -0.701379,-0.554848 -0.132002,-0.299876 -0.15781,-0.64248 -0.0776,-1.027772 0.01827,-0.08696 0.0425,-0.172726 0.07315,-0.257088 0.03318,-0.09689 0.07156,-0.186067 0.114282,-0.267991 0.382901,-0.840994 0.798479,-1.714079 1.246669,-2.619277 0.460623,-0.902593 0.953869,-1.837297 1.479758,-2.804109 l 1.49378,-2.684269 c 0.500495,-0.90725 0.992186,-1.803374 1.475088,-2.688359 0.150754,-0.474388 0.394078,-0.832173 0.729699,-1.073448 0.350673,-0.251099 0.749728,-0.329996 1.197189,-0.236671 0.136714,0.02854 0.291798,0.09334 0.465298,0.194287 0.169873,-0.09956 0.641909,0.183578 0.497892,0.317847 -0.108786,0.166319 0.282981,0.260057 0.381338,0.410268 0.110797,0.152802 0.171877,0.295242 0.183232,0.42731 l -0.0065,-0.05983 c 0.02184,0.0824 0.01133,0.28771 -0.0312,0.616046 -0.03996,0.315922 -0.09391,0.667807 -0.161788,1.055712 l -0.203842,1.16367 c -0.06539,0.375456 -0.102736,0.67895 -0.112058,0.910456 -0.135552,1.644828 -0.158173,3.183513 -0.06786,4.61605 0.232605,-0.431372 0.471477,-0.861424 0.716543,-1.290194 0.260126,-0.438584 0.525103,-0.869694 0.795025,-1.293273 1.319044,-2.033513 2.159124,-3.356313 2.52022,-3.968388 0.15392,-0.240265 0.35154,-0.659482 0.59304,-1.257588 0.13216,-0.322619 0.3497,-0.588528 0.65273,-0.797687 0.30561,-0.221593 0.68836,-0.284431 1.14823,-0.188518 0.72815,0.177817 1.22861,0.483234 1.50145,0.916248 0.28527,0.435628 0.32246,0.910288 0.11156,1.424007 -0.0887,0.176058 -0.151,0.351114 -0.18786,0.524915 -0.024,0.176575 -0.0439,0.334536 -0.0599,0.473875 -0.0965,0.524597 -0.17661,1.033167 -0.24039,1.52568 -0.0612,0.480081 -0.11231,0.942826 -0.15334,1.388214 -0.0487,0.482686 -0.0914,0.966648 -0.12775,1.451915 -0.0364,0.485242 -0.0789,0.969244 -0.12772,1.451911 -0.10436,1.184417 -0.16001,2.197425 -0.16694,3.039011 -0.0104,0.360979 -0.0133,0.717033 -0.009,1.068182 l 0.0138,1.053409 z m 14.61535,-1.795898 c -1.12162,1.646682 -2.33664,2.839388 -3.64503,3.578144 -0.97327,0.56222 -2.25024,0.96382 -3.83094,1.2048 -0.53347,0.0703 -1.04671,0.10597 -1.53978,0.10674 -0.49303,8.6e-4 -0.95084,-0.0427 -1.37343,-0.13082 -1.4045,-0.29293 -2.39197,-1.03065 -2.96243,-2.213146 -0.57771,-1.209946 -0.71491,-2.542027 -0.41161,-3.996244 0.29034,-1.39205 0.94014,-2.735071 1.94926,-4.029099 0.46314,-0.603774 0.98817,-1.162206 1.57507,-1.67532 0.5869,-0.513109 1.20435,-0.954996 1.85232,-1.325675 0.65059,-0.3831 1.31667,-0.685153 1.99829,-0.906138 0.68159,-0.220989 1.34869,-0.341249 2.00124,-0.360782 0.62774,-0.02468 1.23365,0.02384 1.81783,0.145686 0.95703,0.199598 1.73199,0.588205 2.32485,1.165803 0.60788,0.567761 0.99537,1.290576 1.16245,2.168469 0.28864,1.538749 0.32668,2.817722 0.11412,3.836907 -0.0881,0.422603 -0.22103,0.842337 -0.39888,1.259173 -0.17509,0.404469 -0.38627,0.794906 -0.6334,1.171351 z m -1.06323,-4.696328 c -0.0281,-0.485821 -0.2256,-0.877121 -0.59168,-1.173959 -0.35367,-0.294243 -0.93445,-0.525632 -1.74234,-0.694087 -0.31074,-0.06479 -0.67507,-0.121357 -1.093,-0.169608 -1.06738,-0.105893 -2.18119,0.13517 -3.34143,0.723264 1.6411,3.338747 -2.23532,1.856889 -2.9613,3.098207 -0.099,0.225773 -0.17536,0.469298 -0.23008,0.730198 -0.13739,0.658759 -0.10803,1.326334 0.0882,2.002756 0.1961,0.676422 0.54558,1.177319 1.0484,1.502682 0.0969,0.0332 0.21101,0.07643 0.3425,0.129978 0.1344,0.04022 0.2882,0.07954 0.4622,0.115846 0.82032,0.171092 1.66943,0.173088 2.54731,0.006 1.12753,-0.244711 2.0881,-0.777153 2.88172,-1.597334 1.41369,-1.430135 2.24754,-2.754228 2.50159,-3.972277 0.0543,-0.261065 0.0837,-0.494822 0.088,-0.701485 z m 12.28368,10.129862 c 0.0554,0.23202 -0.18549,0.45416 -0.72262,0.66636 -0.52469,0.21481 -1.205,0.4296 -2.04095,0.64434 -0.82092,0.20491 -1.73145,0.40409 -2.73156,0.59755 -0.98768,0.19607 -1.91192,0.39888 -2.77271,0.60843 -0.19217,0.0508 -0.38767,0.0554 -0.58655,0.0138 -0.57172,-0.11926 -1.05202,-0.45931 -1.44082,-1.02033 -0.22886,-0.33307 -0.35955,-0.63917 -0.39211,-0.91832 -0.0299,-0.29159 -0.0164,-0.57411 0.0405,-0.84755 0.0414,-0.19889 0.11876,-0.50699 0.23172,-0.9244 0.11272,-0.41748 0.236,-0.85218 0.36924,-1.304266 0.13608,-0.46446 0.25994,-0.905564 0.37323,-1.322897 0.11272,-0.417478 0.18892,-0.71932 0.22782,-0.905747 0.46403,-2.22481 0.89505,-3.918252 1.29306,-5.080343 -0.12994,-0.247591 -0.15992,-0.539177 -0.0899,-0.874766 0.16847,-0.807894 0.6847,-1.355188 1.54863,-1.64192 0.79759,-0.09301 1.46673,-0.161011 2.00744,-0.203856 0.55573,-0.05273 0.9905,-0.08521 1.30439,-0.09721 0.16936,-0.0036 0.38841,0.0032 0.65722,0.02036 0.28379,0.0073 0.57875,0.02344 0.88482,0.04836 0.32109,0.01508 0.64581,0.0439 0.97416,0.08645 0.32836,0.04253 0.63543,0.09363 0.92131,0.15324 0.54687,0.114067 0.98052,0.366778 1.30107,0.757741 0.33551,0.381242 0.50838,0.858271 0.51861,1.431077 0.0323,0.343872 -0.0746,0.574566 -0.31943,0.692108 -0.24241,0.105079 -0.53167,0.154989 -0.86777,0.149739 -0.3211,-0.01507 -0.64946,-0.05764 -0.98504,-0.127629 l -0.76439,-0.159426 c -1.15643,-0.176351 -2.59778,-0.07491 -4.32405,0.304044 -0.15386,0.240271 -0.29087,0.555403 -0.41122,0.945317 -0.11838,0.377318 -0.22103,0.842348 -0.31021,1.394408 0.37134,-0.03932 0.73648,-0.07984 1.09538,-0.121744 0.35894,-0.04183 0.72407,-0.08245 1.0954,-0.121734 0.97937,-0.09408 1.91807,-0.08636 2.81608,0.02317 0.24344,0.07663 0.43711,0.142988 0.58105,0.199025 0.15899,0.04614 0.26201,0.08064 0.30917,0.103369 0.0693,0.04032 0.15848,0.110821 0.2672,0.211372 0.11134,0.08806 0.21126,0.199687 0.29979,0.334901 0.0912,0.122767 0.16592,0.261562 0.22441,0.416435 0.0586,0.154883 0.0721,0.306867 0.0411,0.456013 -0.0467,0.223728 -0.17769,0.416896 -0.39322,0.579442 -0.20047,0.152736 -0.45038,0.262745 -0.74973,0.330006 -0.0125,-0.003 -0.15329,0.01996 -0.42263,0.0674 -0.26673,0.0351 -0.6083,0.08716 -1.02472,0.155895 -0.40397,0.07141 -0.86155,0.151052 -1.37275,0.238975 -0.49876,0.09047 -0.98509,0.183639 -1.45899,0.279335 -0.47389,0.09579 -0.91052,0.199195 -1.30985,0.310448 -0.39673,0.0989 -0.70258,0.197162 -0.91752,0.294992 -0.0151,0.01 -0.0401,0.0371 -0.0753,0.0815 -0.0281,0.38324 -0.0634,0.73905 -0.10589,1.067376 -0.04,0.31594 -0.0693,0.54974 -0.088,0.70149 -0.0102,0.0498 -0.004,0.0834 0.0179,0.101 l 0.29828,0.0622 c 0.26104,0.0545 0.62068,0.0711 1.07905,0.05 0.46093,-0.0334 1.02809,-0.10981 1.70138,-0.22879 0.0823,-0.0218 0.23071,-0.0491 0.44514,-0.0822 0.22686,-0.0304 0.48607,-0.0608 0.77766,-0.0907 0.30403,-0.0271 0.61786,-0.0398 0.94155,-0.0371 0.33612,0.005 0.64711,0.0377 0.93298,0.0973 0.39772,0.083 0.65404,0.25314 0.76898,0.51057 0.12734,0.26002 0.23809,0.56845 0.33228,0.92531 z"
       id="text2-2"
       style="font-size:24.0211px;line-height:1.12;font-family:'Wild Words Bold';-inkscape-font-specification:'Wild Words Bold, Normal';letter-spacing:0px;word-spacing:0px;fill:#1b1b1b;fill-opacity:1;stroke:#1d1d1d;stroke-width:6.74113;stroke-linejoin:bevel;stroke-opacity:1"
       aria-label=".moe"
       sodipodi:nodetypes="ccscsssccscccscssccscssssccccccscssscsccccccccssccscccccccscsccccccccccccccccccccsccccscccsscscscscsccsccccscccssccsccscccccccsccsscsscscccccssccccsccccsccccccsscccccsccccccscccccscccc" /><text
       xml:space="preserve"
       style="font-size:26.2122px;line-height:1.12;font-family:'Atkinson Hyperlegible';-inkscape-font-specification:'Atkinson Hyperlegible';text-align:start;text-decoration-color:#000000;letter-spacing:0px;word-spacing:0px;writing-mode:lr-tb;direction:ltr;text-anchor:start;fill:#ff8a8a;fill-opacity:1;stroke-width:10.786;stroke-linejoin:bevel;stroke-dasharray:none"
       x="17.062466"
       y="95.575821"
       id="text1"
       transform="rotate(-5.6143137)"><tspan
         sodipodi:role="line"
         id="tspan1"
         style="font-style:normal;font-variant:normal;font-weight:normal;font-stretch:normal;font-size:26.2122px;font-family:'Wild Words Bold';-inkscape-font-specification:'Wild Words Bold, Normal';font-variant-ligatures:normal;font-variant-caps:normal;font-variant-numeric:normal;font-variant-east-asian:normal;fill:#ff8a8a;fill-opacity:1;stroke-width:10.786;stroke-dasharray:none"
         x="17.062466"
         y="95.575821">ansi</tspan></text><text
       xml:space="preserve"
       style="font-style:normal;font-variant:normal;font-weight:normal;font-stretch:normal;font-size:9.57077px;line-height:1.12;font-family:'SS Pretzel';-inkscape-font-specification:'SS Pretzel, Normal';font-variant-ligatures:normal;font-variant-caps:normal;font-variant-numeric:normal;font-variant-east-asian:normal;text-align:start;text-decoration-color:#000000;letter-spacing:0px;word-spacing:0px;writing-mode:lr-tb;direction:ltr;text-anchor:start;fill:#a90065;fill-opacity:1;stroke:none;stroke-width:0.570975;stroke-linecap:round;stroke-linejoin:round;stroke-dasharray:none;stroke-opacity:1"
       x="89.074303"
       y="79.943359"
       id="text5-9"
       transform="matrix(1.1165219,0.34501469,-0.25263654,0.81757167,0,0)"><tspan
         sodipodi:role="line"
         id="tspan5-3"
         style="font-style:normal;font-variant:normal;font-weight:normal;font-stretch:normal;font-size:9.57077px;font-family:'SS Boba Date';-inkscape-font-specification:'SS Boba Date, Normal';font-variant-ligatures:normal;font-variant-caps:normal;font-variant-numeric:normal;font-variant-east-asian:normal;fill:#a90065;fill-opacity:1;stroke:none;stroke-width:0.570975;stroke-opacity:1"
         x="89.074303"
         y="79.943359">&lt;3</tspan></text><text
       xml:space="preserve"
       style="font-style:normal;font-variant:normal;font-weight:normal;font-stretch:normal;font-size:18.4621px;line-height:1.12;font-family:'Wild Words Bold';-inkscape-font-specification:'Wild Words Bold, Normal';font-variant-ligatures:normal;font-variant-caps:normal;font-variant-numeric:normal;font-variant-east-asian:normal;text-align:start;text-decoration-color:#000000;letter-spacing:0px;word-spacing:0px;writing-mode:lr-tb;direction:ltr;text-anchor:start;fill:#ffffff;fill-opacity:1;stroke-width:6.32928;stroke-linejoin:bevel"
       x="98.631989"
       y="77.184441"
       id="text2"
       transform="rotate(11.781246)"><tspan
         sodipodi:role="line"
         id="tspan2"
         style="fill:#ffffff;fill-opacity:1;stroke-width:6.32928"
         x="98.631989"
         y="77.184441"><tspan
   style="fill:none;fill-opacity:1;stroke-width:6.32928"
   id="tspan3">.</tspan>moe</tspan></text></g></svg>
